<?xml version="1.0" encoding="UTF-8" standalone="no"?>
<!-- Created with Inkscape (http://www.inkscape.org/) -->

<svg
   xmlns:dc="http://purl.org/dc/elements/1.1/"
   xmlns:cc="http://creativecommons.org/ns#"
   xmlns:rdf="http://www.w3.org/1999/02/22-rdf-syntax-ns#"
   xmlns:svg="http://www.w3.org/2000/svg"
   xmlns="http://www.w3.org/2000/svg"
   xmlns:sodipodi="http://sodipodi.sourceforge.net/DTD/sodipodi-0.dtd"
   xmlns:inkscape="http://www.inkscape.org/namespaces/inkscape"
   width="117.61039mm"
   height="142.81651mm"
   viewBox="0 0 416.72973 506.04276"
   id="svg4217"
   version="1.1"
   inkscape:version="0.91 r13725"
   sodipodi:docname="OD logo - Vector.svg">
  <defs
     id="defs4219" />
  <sodipodi:namedview
     id="base"
     pagecolor="#ffffff"
     bordercolor="#666666"
     borderopacity="1.0"
     inkscape:pageopacity="0.0"
     inkscape:pageshadow="2"
     inkscape:zoom="0.7"
     inkscape:cx="272.17322"
     inkscape:cy="256.04848"
     inkscape:document-units="px"
     inkscape:current-layer="layer1"
     showgrid="false"
     fit-margin-top="0"
     fit-margin-left="0"
     fit-margin-right="0"
     fit-margin-bottom="0"
     inkscape:window-width="1920"
     inkscape:window-height="1026"
     inkscape:window-x="0"
     inkscape:window-y="0"
     inkscape:window-maximized="1" />
  <metadata
     id="metadata4222">
    <rdf:RDF>
      <cc:Work
         rdf:about="">
        <dc:format>image/svg+xml</dc:format>
        <dc:type
           rdf:resource="http://purl.org/dc/dcmitype/StillImage" />
        <dc:title></dc:title>
      </cc:Work>
    </rdf:RDF>
  </metadata>
  <g
     inkscape:label="Layer 1"
     inkscape:groupmode="layer"
     id="layer1"
     transform="translate(-148.52808,-511.00605)">
    <text
       sodipodi:linespacing="125%"
       id="text4152"
       y="660.44226"
       x="137.14629"
       style="font-style:normal;font-weight:normal;font-size:274.23419189px;line-height:125%;font-family:sans-serif;letter-spacing:0px;word-spacing:0px;fill:#afdde9;fill-opacity:1;stroke:none;stroke-width:1px;stroke-linecap:butt;stroke-linejoin:miter;stroke-opacity:1;"
       xml:space="preserve"><tspan
         style="font-style:normal;font-variant:normal;font-weight:600;font-stretch:normal;font-family:'Century Gothic';-inkscape-font-specification:'Century Gothic Semi-Bold';fill:#afdde9;fill-opacity:1;"
         y="660.44226"
         x="137.14629"
         id="tspan4154"
         sodipodi:role="line">o</tspan></text>
    <path
       inkscape:connector-curvature="0"
       style="font-style:normal;font-weight:normal;font-size:609.37347412px;line-height:125%;font-family:sans-serif;letter-spacing:0px;word-spacing:0px;fill:#3771c8;fill-opacity:1;stroke:none;stroke-width:1px;stroke-linecap:butt;stroke-linejoin:miter;stroke-opacity:1"
       d="m 502.40039,511.0332 0,213.96289 c -10.11742,-9.69788 -21.5571,-18.1838 -34.35156,-25.42773 -26.77911,-15.27401 -55.44222,-22.91211 -85.99024,-22.91211 -42.25148,0 -79.64412,14.67927 -112.17578,44.03711 -37.09402,33.72184 -55.64062,75.87427 -55.64062,126.45703 0,47.21058 16.36568,87.37911 49.0957,120.50586 32.92838,32.92835 72.60046,49.39255 119.01758,49.39255 31.53984,0 60.40192,-7.4391 86.58594,-22.31638 12.40475,-7.14213 23.54741,-15.59205 33.45898,-25.3164 l 0,43.04488 62.85742,0 0,-501.4277 -62.85742,0 z M 383.24805,753.125 c 25.78729,0 46.91276,8.72954 63.37695,26.18555 16.66256,17.25764 24.99414,39.77204 24.99414,67.54297 0,27.77092 -8.4301,50.48234 -25.29102,68.13671 -16.86091,17.65438 -37.98639,26.48243 -63.37695,26.48243 -25.39056,0 -46.41752,-8.72759 -63.08008,-26.1836 -16.46419,-17.45601 -24.69531,-40.26789 -24.69531,-68.43554 0,-27.3742 8.32963,-49.79009 24.99219,-67.2461 16.86092,-17.65437 37.88788,-26.48242 63.08008,-26.48242 z"
       id="text4160" />
  </g>
</svg>
