<?xml version="1.0" encoding="UTF-8" standalone="no"?>
<!-- Created with Inkscape (http://www.inkscape.org/) -->

<svg
   xmlns:dc="http://purl.org/dc/elements/1.1/"
   xmlns:cc="http://creativecommons.org/ns#"
   xmlns:rdf="http://www.w3.org/1999/02/22-rdf-syntax-ns#"
   xmlns:svg="http://www.w3.org/2000/svg"
   xmlns="http://www.w3.org/2000/svg"
   xmlns:sodipodi="http://sodipodi.sourceforge.net/DTD/sodipodi-0.dtd"
   xmlns:inkscape="http://www.inkscape.org/namespaces/inkscape"
   width="234.09813mm"
   height="199.03139mm"
   viewBox="0 0 829.48157 705.22932"
   id="svg4217"
   version="1.1"
   inkscape:version="0.91 r13725"
   sodipodi:docname="Opening Design logo - Vector 4 freecad.svg">
  <defs
     id="defs4219" />
  <sodipodi:namedview
     id="base"
     pagecolor="#ffffff"
     bordercolor="#666666"
     borderopacity="1.0"
     inkscape:pageopacity="0.0"
     inkscape:pageshadow="2"
     inkscape:zoom="0.7"
     inkscape:cx="148.34259"
     inkscape:cy="439.52078"
     inkscape:document-units="px"
     inkscape:current-layer="layer1"
     showgrid="false"
     fit-margin-top="0"
     fit-margin-left="0"
     fit-margin-right="0"
     fit-margin-bottom="0"
     inkscape:window-width="1920"
     inkscape:window-height="1026"
     inkscape:window-x="0"
     inkscape:window-y="0"
     inkscape:window-maximized="1" />
  <metadata
     id="metadata4222">
    <rdf:RDF>
      <cc:Work
         rdf:about="">
        <dc:format>image/svg+xml</dc:format>
        <dc:type
           rdf:resource="http://purl.org/dc/dcmitype/StillImage" />
        <dc:title></dc:title>
      </cc:Work>
    </rdf:RDF>
  </metadata>
  <g
     inkscape:label="Layer 1"
     inkscape:groupmode="layer"
     id="layer1"
     transform="translate(26.212714,-511.00605)">
    <g
       id="g4148">
      <g
         id="g4143">
        <path
           id="text4152"
           transform="translate(-26.212714,511.00605)"
           d="M 250.26172 0 C 231.24743 0 214.42136 6.6065559 199.78125 19.818359 C 183.08796 34.99408 174.74023 53.962982 174.74023 76.726562 C 174.74023 97.972571 182.10461 116.04912 196.83398 130.95703 C 211.65263 145.77568 229.50755 153.18555 250.39648 153.18555 C 264.59025 153.18555 277.57783 149.83775 289.36133 143.14258 C 301.14483 136.35814 310.4304 126.98548 317.21484 115.02344 C 324.08855 103.0614 327.52539 90.206402 327.52539 76.458984 C 327.52539 62.800836 324.1321 50.080375 317.34766 38.296875 C 310.56322 26.513375 301.10151 17.184255 288.96094 10.310547 C 276.90963 3.4368383 264.00914 0 250.26172 0 z M 528.61328 0.02734375 L 528.61328 213.99023 C 518.49586 204.29235 507.05618 195.80643 494.26172 188.5625 C 467.48261 173.28849 438.8195 165.65039 408.27148 165.65039 C 366.02 165.65039 328.62736 180.32966 296.0957 209.6875 C 259.00168 243.40934 240.45508 285.56177 240.45508 336.14453 C 240.45508 383.35511 256.82076 423.52364 289.55078 456.65039 C 322.47916 489.57874 362.15124 506.04297 408.56836 506.04297 C 440.1082 506.04297 468.97028 498.60384 495.1543 483.72656 C 507.55905 476.58443 518.70171 468.13451 528.61328 458.41016 L 528.61328 501.45508 L 591.4707 501.45508 L 591.4707 0.02734375 L 528.61328 0.02734375 z M 250.79883 34.414062 C 262.40379 34.414062 271.91099 38.341599 279.32031 46.197266 C 286.8189 53.963664 290.56641 64.094145 290.56641 76.591797 C 290.56641 89.089449 286.77341 99.310923 279.18555 107.25586 C 271.59769 115.2008 262.09049 119.17383 250.66406 119.17383 C 239.23764 119.17383 229.77593 115.24629 222.27734 107.39062 C 214.86802 99.534958 211.16211 89.267987 211.16211 76.591797 C 211.16211 64.272683 214.91157 54.185745 222.41016 46.330078 C 229.99802 38.385142 239.46167 34.414062 250.79883 34.414062 z M 409.46094 242.11914 C 435.24823 242.11914 456.3737 250.84868 472.83789 268.30469 C 489.50045 285.56233 497.83203 308.07673 497.83203 335.84766 C 497.83203 363.61858 489.40194 386.33001 472.54102 403.98438 C 455.68011 421.63875 434.55462 430.4668 409.16406 430.4668 C 383.7735 430.4668 362.74654 421.73921 346.08398 404.2832 C 329.61979 386.82719 321.38867 364.01531 321.38867 335.84766 C 321.38867 308.47346 329.7183 286.05757 346.38086 268.60156 C 363.24178 250.94719 384.26874 242.11914 409.46094 242.11914 z "
           style="font-style:normal;font-weight:normal;font-size:274.23419189px;line-height:125%;font-family:sans-serif;letter-spacing:0px;word-spacing:0px;fill:#afdde9;fill-opacity:1;stroke:none;stroke-width:1px;stroke-linecap:butt;stroke-linejoin:miter;stroke-opacity:1" />
        <path
           id="text4166"
           transform="translate(-26.212714,511.00605)"
           d="M 284.56836 601.14258 C 282.02188 601.14258 279.84673 602.0439 278.04297 603.84766 C 276.23921 605.65141 275.33789 607.82657 275.33789 610.37305 C 275.33789 613.02563 276.23921 615.28957 278.04297 617.16406 C 279.88209 619.00319 282.09393 619.92188 284.67578 619.92188 C 287.18689 619.92188 289.34468 619.02055 291.14844 617.2168 C 292.95219 615.37767 293.85352 613.16779 293.85352 610.58594 C 293.85352 607.96872 292.93287 605.73952 291.09375 603.90039 C 289.28999 602.06127 287.11484 601.14258 284.56836 601.14258 z M 686.13672 601.14258 C 683.59024 601.14258 681.41509 602.0439 679.61133 603.84766 C 677.80757 605.65141 676.9043 607.82657 676.9043 610.37305 C 676.9043 613.02563 677.80757 615.28957 679.61133 617.16406 C 681.45045 619.00319 683.66034 619.92188 686.24219 619.92188 C 688.7533 619.92188 690.91109 619.02055 692.71484 617.2168 C 694.5186 615.37767 695.41992 613.16779 695.41992 610.58594 C 695.41992 607.96872 694.50123 605.73952 692.66211 603.90039 C 690.85835 602.06127 688.6832 601.14258 686.13672 601.14258 z M 534.03711 602.62695 L 534.03711 631.27539 C 531.45526 628.65817 528.64319 626.69533 525.60156 625.38672 C 522.55993 624.07811 519.30589 623.42383 515.83984 623.42383 C 508.30651 623.42383 501.90457 626.27063 496.63477 631.96484 C 491.36497 637.65906 488.73047 644.96232 488.73047 653.875 C 488.73047 662.46937 491.45375 669.66648 496.90039 675.4668 C 502.34703 681.23175 508.80107 684.11523 516.26367 684.11523 C 519.58824 684.11523 522.66667 683.53042 525.49609 682.36328 C 528.36088 681.16078 531.20769 679.21725 534.03711 676.5293 L 534.03711 682.62891 L 548.4668 682.62891 L 548.4668 602.62695 L 534.03711 602.62695 z M 29.921875 623.42383 C 22.388536 623.42383 15.720239 626.04096 9.9199219 631.27539 C 3.3061457 637.28791 0 644.80348 0 653.82227 C 0 662.2398 2.9182214 669.40217 8.7539062 675.30859 C 14.624959 681.17965 21.698547 684.11523 29.974609 684.11523 C 35.598087 684.11523 40.743562 682.7893 45.412109 680.13672 C 50.080657 677.44877 53.759314 673.73342 56.447266 668.99414 C 59.170585 664.25486 60.53125 659.16344 60.53125 653.7168 C 60.53125 648.30553 59.187952 643.26425 56.5 638.5957 C 53.812048 633.92716 50.063925 630.23113 45.253906 627.50781 C 40.479255 624.78449 35.368514 623.42383 29.921875 623.42383 z M 105.04297 623.42383 C 101.57693 623.42383 98.32288 624.07811 95.28125 625.38672 C 92.23962 626.69533 89.410185 628.65817 86.792969 631.27539 L 86.792969 624.9082 L 72.416016 624.9082 L 72.416016 703.74414 L 86.792969 703.74414 L 86.792969 676.5293 C 89.622392 679.21725 92.469194 681.16078 95.333984 682.36328 C 98.198775 683.53042 101.29262 684.11523 104.61719 684.11523 C 112.07979 684.11523 118.53578 681.23175 123.98242 675.4668 C 129.42906 669.66648 132.15234 662.46937 132.15234 653.875 C 132.15234 644.96232 129.51589 637.65906 124.24609 631.96484 C 118.97629 626.27063 112.57631 623.42383 105.04297 623.42383 z M 171.30469 623.42383 C 162.74568 623.42383 155.61804 626.34205 149.92383 632.17773 C 144.26498 637.97805 141.43555 645.28131 141.43555 654.08789 C 141.43555 662.68226 144.28235 669.84464 149.97656 675.57422 C 155.67078 681.26843 163.04546 684.11523 172.09961 684.11523 C 177.93529 684.11523 182.97462 683.08844 187.21875 681.03711 C 191.46288 678.95041 195.10681 675.75042 198.14844 671.43555 L 185.94531 665.70508 C 182.05486 669.48943 177.40541 671.38281 171.99414 671.38281 C 167.46706 671.38281 163.73435 670.1804 160.79883 667.77539 C 157.89867 665.33501 156.11339 662.0636 155.44141 657.96094 L 201.9668 657.96094 L 202.02148 655.20117 C 202.02148 645.65187 199.17273 637.97805 193.47852 632.17773 C 187.7843 626.34205 180.39421 623.42383 171.30469 623.42383 z M 245.31055 623.42383 C 242.51649 623.42383 239.77584 623.97196 237.08789 625.06836 C 234.43531 626.12939 231.46499 628.03819 228.17578 630.79688 L 228.17578 624.9082 L 213.74609 624.9082 L 213.74609 682.62891 L 228.17578 682.62891 L 228.17578 659.44531 C 228.17578 653.43279 228.38809 649.52446 228.8125 647.7207 C 229.62596 644.25466 231.07541 641.54874 233.16211 639.60352 C 235.28418 637.62292 237.81252 636.63281 240.74805 636.63281 C 243.01159 636.63281 244.90497 637.235 246.42578 638.4375 C 247.98196 639.60464 249.06086 641.32045 249.66211 643.58398 C 250.29873 645.84752 250.61523 650.4275 250.61523 657.32422 L 250.61523 682.62891 L 264.93945 682.62891 L 264.93945 644.48438 C 264.93945 637.83523 263.26033 632.81328 259.90039 629.41797 C 255.90383 625.42141 251.04013 623.42383 245.31055 623.42383 z M 336.56055 623.42383 C 333.76649 623.42383 331.02389 623.97196 328.33594 625.06836 C 325.68335 626.12939 322.71303 628.03819 319.42383 630.79688 L 319.42383 624.9082 L 304.99414 624.9082 L 304.99414 682.62891 L 319.42383 682.62891 L 319.42383 659.44531 C 319.42383 653.43279 319.63613 649.52446 320.06055 647.7207 C 320.87401 644.25466 322.32346 641.54874 324.41016 639.60352 C 326.53222 637.62292 329.06252 636.63281 331.99805 636.63281 C 334.26159 636.63281 336.15301 637.235 337.67383 638.4375 C 339.23001 639.60464 340.3089 641.32045 340.91016 643.58398 C 341.54678 645.84752 341.86523 650.4275 341.86523 657.32422 L 341.86523 682.62891 L 356.18945 682.62891 L 356.18945 644.48438 C 356.18945 637.83523 354.50838 632.81328 351.14844 629.41797 C 347.15188 625.42141 342.29013 623.42383 336.56055 623.42383 z M 394.49219 623.42383 C 387.38326 623.42383 381.26505 625.93481 376.13672 630.95703 C 370.47787 636.50977 367.64844 643.86709 367.64844 653.02734 C 367.64844 661.58635 370.31767 668.65994 375.6582 674.24805 C 380.99874 679.83616 387.54156 682.62891 395.28711 682.62891 C 398.82389 682.62891 401.9911 682.08078 404.78516 680.98438 C 407.57921 679.85261 410.24844 678.01328 412.79492 675.4668 C 412.79492 680.13534 412.30084 683.42608 411.31055 685.33594 C 410.35562 687.2458 408.69191 688.8014 406.32227 690.00391 C 403.95262 691.20641 400.82405 691.80664 396.93359 691.80664 C 393.89196 691.80664 391.25551 691.38203 389.02734 690.5332 C 386.79917 689.71974 384.97916 688.49997 383.56445 686.87305 L 367.5957 686.87305 C 368.86894 690.79887 370.83179 694.12434 373.48438 696.84766 C 376.13696 699.60634 379.391 701.69271 383.24609 703.10742 C 387.10118 704.52213 391.85678 705.22852 397.51562 705.22852 C 408.12596 705.22852 416.06614 702.11731 421.33594 695.89258 C 425.26176 691.29477 427.22461 684.11502 427.22461 674.35352 L 427.22461 624.9082 L 412.79492 624.9082 L 412.79492 631.27539 C 409.82403 628.48134 406.85371 626.48375 403.88281 625.28125 C 400.94729 624.04338 397.81676 623.42383 394.49219 623.42383 z M 590.27148 623.42383 C 581.71248 623.42383 574.58679 626.34205 568.89258 632.17773 C 563.23373 637.97805 560.4043 645.28131 560.4043 654.08789 C 560.4043 662.68226 563.2511 669.84464 568.94531 675.57422 C 574.63953 681.26843 582.01225 684.11523 591.06641 684.11523 C 596.90209 684.11523 601.94337 683.08844 606.1875 681.03711 C 610.43163 678.95041 614.0736 675.75042 617.11523 671.43555 L 604.91406 665.70508 C 601.02361 669.48943 596.37221 671.38281 590.96094 671.38281 C 586.43386 671.38281 582.7031 670.1804 579.76758 667.77539 C 576.86742 665.33501 575.08019 662.0636 574.4082 657.96094 L 620.93555 657.96094 L 620.98828 655.20117 C 620.98828 645.65187 618.14148 637.97805 612.44727 632.17773 C 606.75305 626.34205 599.36101 623.42383 590.27148 623.42383 z M 649.05273 623.42383 C 643.57073 623.42383 639.06217 625.05085 635.52539 628.30469 C 632.02398 631.52316 630.27344 635.41412 630.27344 639.97656 C 630.27344 647.05012 634.94025 652.93866 644.27734 657.64258 L 649.1582 660.08203 C 653.36697 662.2041 655.47266 664.37925 655.47266 666.60742 C 655.47266 667.80993 654.88784 668.87145 653.7207 669.79102 C 652.55357 670.71058 651.01533 671.16992 649.10547 671.16992 C 647.33708 671.16992 645.30477 670.56969 643.00586 669.36719 C 640.74232 668.12931 638.76015 666.51966 637.0625 664.53906 L 628.15039 674.24805 C 633.17262 680.82646 639.89301 684.11523 648.31055 684.11523 C 654.64138 684.11523 659.6807 682.39943 663.42969 678.96875 C 667.21404 675.53807 669.10547 671.25919 669.10547 666.13086 C 669.10547 662.27577 668.06326 658.91557 665.97656 656.05078 C 663.88986 653.18599 660.05295 650.37392 654.46484 647.61523 L 649.1582 644.96289 C 646.8593 643.83112 645.40985 642.94717 644.80859 642.31055 C 644.24271 641.63856 643.95898 640.91286 643.95898 640.13477 C 643.95898 639.1091 644.42028 638.25988 645.33984 637.58789 C 646.25941 636.88053 647.53128 636.52734 649.1582 636.52734 C 652.1291 636.52734 655.4372 638.33194 659.08008 641.93945 L 668.04492 632.97266 C 665.74602 629.89566 662.93395 627.54489 659.60938 625.91797 C 656.32017 624.25568 652.80172 623.42383 649.05273 623.42383 z M 730.91211 623.42383 C 723.80318 623.42383 717.68497 625.93481 712.55664 630.95703 C 706.89779 636.50977 704.06836 643.86709 704.06836 653.02734 C 704.06836 661.58635 706.73759 668.65994 712.07812 674.24805 C 717.41866 679.83616 723.96149 682.62891 731.70703 682.62891 C 735.24381 682.62891 738.40907 682.08078 741.20312 680.98438 C 743.99718 679.85261 746.66836 678.01328 749.21484 675.4668 C 749.21484 680.13534 748.71881 683.42608 747.72852 685.33594 C 746.77359 687.2458 745.11183 688.8014 742.74219 690.00391 C 740.37255 691.20641 737.24202 691.80664 733.35156 691.80664 C 730.30993 691.80664 727.67544 691.38203 725.44727 690.5332 C 723.2191 689.71974 721.39713 688.49997 719.98242 686.87305 L 704.01367 686.87305 C 705.28691 690.79887 707.24976 694.12434 709.90234 696.84766 C 712.55493 699.60634 715.80897 701.69271 719.66406 703.10742 C 723.51915 704.52213 728.2767 705.22852 733.93555 705.22852 C 744.54588 705.22852 752.48606 702.11731 757.75586 695.89258 C 761.68168 691.29477 763.64453 684.11502 763.64453 674.35352 L 763.64453 624.9082 L 749.21484 624.9082 L 749.21484 631.27539 C 746.24395 628.48134 743.27168 626.48375 740.30078 625.28125 C 737.36525 624.04338 734.23668 623.42383 730.91211 623.42383 z M 809.85156 623.42383 C 807.05751 623.42383 804.31686 623.97196 801.62891 625.06836 C 798.97632 626.12939 796.006 628.03819 792.7168 630.79688 L 792.7168 624.9082 L 778.28711 624.9082 L 778.28711 682.62891 L 792.7168 682.62891 L 792.7168 659.44531 C 792.7168 653.43279 792.9291 649.52446 793.35352 647.7207 C 794.16697 644.25466 795.61643 641.54874 797.70312 639.60352 C 799.82519 637.62292 802.35354 636.63281 805.28906 636.63281 C 807.5526 636.63281 809.44598 637.235 810.9668 638.4375 C 812.52298 639.60464 813.60187 641.32045 814.20312 643.58398 C 814.83975 645.84752 815.1582 650.4275 815.1582 657.32422 L 815.1582 682.62891 L 829.48242 682.62891 L 829.48242 644.48438 C 829.48242 637.83523 827.80135 632.81328 824.44141 629.41797 C 820.44485 625.42141 815.58114 623.42383 809.85156 623.42383 z M 277.30078 624.9082 L 277.30078 682.62891 L 291.83789 682.62891 L 291.83789 624.9082 L 277.30078 624.9082 z M 678.86719 624.9082 L 678.86719 682.62891 L 693.4043 682.62891 L 693.4043 624.9082 L 678.86719 624.9082 z M 171.99414 635.67773 C 175.70776 635.67773 178.9618 636.68716 181.75586 638.70312 C 184.58528 640.71909 186.47671 643.33622 187.43164 646.55469 L 156.07812 646.55469 C 157.70504 642.98254 159.47295 640.48893 161.38281 639.07422 C 164.42444 636.81068 167.96221 635.67773 171.99414 635.67773 z M 590.96094 635.67773 C 594.67456 635.67773 597.9286 636.68716 600.72266 638.70312 C 603.55208 640.71909 605.44351 643.33622 606.39844 646.55469 L 575.04492 646.55469 C 576.67184 642.98254 578.4417 640.48893 580.35156 639.07422 C 583.39319 636.81068 586.92901 635.67773 590.96094 635.67773 z M 102.01758 636.79297 C 106.54465 636.79297 110.29473 638.38331 113.26562 641.56641 C 116.23652 644.71414 117.7207 648.76531 117.7207 653.7168 C 117.7207 658.70365 116.20179 662.80497 113.16016 666.02344 C 110.15389 669.24191 106.43855 670.85156 102.01758 670.85156 C 97.455134 670.85156 93.672278 669.27859 90.666016 666.13086 C 87.659754 662.94776 86.15625 658.79239 86.15625 653.66406 C 86.15625 648.64184 87.659754 644.5733 90.666016 641.46094 C 93.672278 638.34857 97.455134 636.79297 102.01758 636.79297 z M 518.81055 636.79297 C 523.40836 636.79297 527.21053 638.34857 530.2168 641.46094 C 533.22306 644.5733 534.72656 648.64184 534.72656 653.66406 C 534.72656 658.79239 533.22306 662.94776 530.2168 666.13086 C 527.21053 669.27859 523.42573 670.85156 518.86328 670.85156 C 514.44231 670.85156 510.71155 669.24191 507.66992 666.02344 C 504.66366 662.80497 503.16016 658.70365 503.16016 653.7168 C 503.16016 648.76531 504.64629 644.71414 507.61719 641.56641 C 510.58808 638.38331 514.31884 636.79297 518.81055 636.79297 z M 397.78125 636.95117 C 402.41443 636.95117 406.19924 638.45468 409.13477 641.46094 C 412.07029 644.4672 413.53711 648.37553 413.53711 653.18555 C 413.53711 658.0663 412.07029 662.00936 409.13477 665.01562 C 406.23461 668.02189 402.53858 669.52539 398.04688 669.52539 C 393.44906 669.52539 389.62952 667.98715 386.58789 664.91016 C 383.54626 661.83316 382.02539 657.8901 382.02539 653.08008 C 382.02539 648.4469 383.51153 644.60804 386.48242 641.56641 C 389.45332 638.48941 393.21881 636.95117 397.78125 636.95117 z M 734.20117 636.95117 C 738.83435 636.95117 742.61916 638.45468 745.55469 641.46094 C 748.49021 644.4672 749.95703 648.37553 749.95703 653.18555 C 749.95703 658.0663 748.49021 662.00936 745.55469 665.01562 C 742.65453 668.02189 738.95851 669.52539 734.4668 669.52539 C 729.86898 669.52539 726.04944 667.98715 723.00781 664.91016 C 719.96618 661.83316 718.44531 657.8901 718.44531 653.08008 C 718.44531 648.4469 719.9295 644.60804 722.90039 641.56641 C 725.87128 638.48941 729.63873 636.95117 734.20117 636.95117 z M 30.132812 637.05859 C 34.730625 637.05859 38.498067 638.6142 41.433594 641.72656 C 44.404488 644.80356 45.890625 648.81804 45.890625 653.76953 C 45.890625 658.72102 44.387121 662.77024 41.380859 665.91797 C 38.374597 669.0657 34.607155 670.63867 30.080078 670.63867 C 25.553001 670.63867 21.804878 669.08307 18.833984 665.9707 C 15.898458 662.85834 14.429688 658.79176 14.429688 653.76953 C 14.429688 648.88878 15.915825 644.89166 18.886719 641.7793 C 21.892981 638.63156 25.641104 637.05859 30.132812 637.05859 z "
           style="font-style:normal;font-weight:normal;font-size:108.64984131px;line-height:125%;font-family:sans-serif;letter-spacing:0px;word-spacing:0px;fill:#3771c8;fill-opacity:1;stroke:none;stroke-width:1px;stroke-linecap:butt;stroke-linejoin:miter;stroke-opacity:1" />
      </g>
    </g>
  </g>
</svg>
